<svg width="24" height="24" viewBox="0 0 24 24" fill="none" xmlns="http://www.w3.org/2000/svg">
<path d="M12.2373 18.5728L12.2357 18.5745C11.8022 19.0024 11.6766 19.1187 11.5674 19.1842L11.9529 19.8275L11.5674 19.1842C11.165 19.4253 10.6614 19.4208 10.2634 19.1725C10.1552 19.105 10.0316 18.9862 9.60453 18.5492L9.37849 18.3179L8.85989 17.7872L8.32369 18.3001L6.83148 19.7275C6.43432 20.1073 6.31997 20.2106 6.22129 20.2706C5.81372 20.5185 5.3006 20.5128 4.89864 20.2559C4.80131 20.1937 4.68929 20.088 4.30066 19.6993C3.91204 19.3107 3.80625 19.1987 3.74406 19.1014C3.48718 18.6994 3.48148 18.1863 3.72936 17.7787C3.78938 17.68 3.89265 17.5657 4.27255 17.1685L5.69988 15.6763L6.2069 15.1462L5.68822 14.6276L5.42506 14.3644C4.99635 13.9357 4.8799 13.8117 4.81394 13.7036C4.57009 13.3039 4.57009 12.8014 4.81394 12.4017C4.8799 12.2935 4.99635 12.1696 5.42506 11.7409C5.85378 11.3121 5.97774 11.1957 6.08587 11.1297C6.4856 10.8859 6.98809 10.8859 7.38782 11.1297C7.49594 11.1957 7.61991 11.3121 8.04862 11.7409L12.2458 15.9381C12.6785 16.3707 12.796 16.4959 12.8622 16.6049L13.5032 16.2154M12.2373 18.5728L12.7629 19.1052L12.7642 19.1066C13.1682 18.7077 13.3702 18.5083 13.4965 18.3036C13.8907 17.6641 13.8933 16.8575 13.5032 16.2154M12.2373 18.5728C12.6727 18.143 12.7911 18.0186 12.858 17.91C13.1045 17.5103 13.1061 17.0062 12.8622 16.6049L13.5032 16.2154M12.2373 18.5728L13.5032 16.2154" fill="#3F97FF" stroke="black" stroke-width="1.5" stroke-linecap="round"/>
<path d="M20.7784 8.3295L12.6142 14.8275C12.1168 15.2234 11.4014 15.1829 10.9519 14.7334L9.26657 13.0481C8.81703 12.5985 8.77652 11.8832 9.17242 11.3858L15.6704 3.22157C15.9076 2.9236 16.2676 2.75 16.6485 2.75H19.9999C20.6903 2.75 21.2499 3.30964 21.2499 4V7.35147C21.2499 7.73229 21.0763 8.09234 20.7784 8.3295Z" fill="#FFD33F" stroke="black" stroke-width="1.5" stroke-linecap="round"/>
<path d="M17.7895 6.21045L12 11.9999" stroke="black" stroke-width="1.5" stroke-linecap="round"/>
</svg>
