<svg width="24" height="24" viewBox="0 0 24 24" fill="none" xmlns="http://www.w3.org/2000/svg">
<rect x="6.75" y="11.75" width="14.5" height="8.5" rx="1.25" fill="#FFD33F" stroke="black" stroke-width="1.5"/>
<rect x="2.75" y="5.75" width="14.5" height="8.5" rx="1.25" fill="#3F97FF" stroke="black" stroke-width="1.5"/>
<path d="M9.25 3.75C9.25 3.33579 9.58579 3 10 3C10.4142 3 10.75 3.33579 10.75 3.75V5.25C10.75 5.66421 10.4142 6 10 6C9.58579 6 9.25 5.66421 9.25 5.25V3.75Z" fill="black"/>
<path d="M5 8.75C5 8.33579 5.33579 8 5.75 8L10.25 8C10.6642 8 11 8.33579 11 8.75C11 9.16421 10.6642 9.5 10.25 9.5H5.75C5.33579 9.5 5 9.16421 5 8.75Z" fill="black"/>
<path d="M9 11.25C9 10.8358 9.33579 10.5 9.75 10.5H14.25C14.6642 10.5 15 10.8358 15 11.25C15 11.6642 14.6642 12 14.25 12H9.75C9.33579 12 9 11.6642 9 11.25Z" fill="black"/>
<path d="M5 11.25C5 10.8358 5.33579 10.5 5.75 10.5H7.25C7.66421 10.5 8 10.8358 8 11.25C8 11.6642 7.66421 12 7.25 12H5.75C5.33579 12 5 11.6642 5 11.25Z" fill="black"/>
<path d="M13 17.25C13 16.8358 13.3358 16.5 13.75 16.5H18.25C18.6642 16.5 19 16.8358 19 17.25C19 17.6642 18.6642 18 18.25 18H13.75C13.3358 18 13 17.6642 13 17.25Z" fill="black"/>
<path d="M9 17.25C9 16.8358 9.33579 16.5 9.75 16.5H11.25C11.6642 16.5 12 16.8358 12 17.25C12 17.6642 11.6642 18 11.25 18H9.75C9.33579 18 9 17.6642 9 17.25Z" fill="black"/>
<path d="M12 8.75C12 8.33579 12.3358 8 12.75 8H14.25C14.6642 8 15 8.33579 15 8.75C15 9.16421 14.6642 9.5 14.25 9.5H12.75C12.3358 9.5 12 9.16421 12 8.75Z" fill="black"/>
</svg>
