<svg width="24" height="24" viewBox="0 0 24 24" fill="none" xmlns="http://www.w3.org/2000/svg">
<path d="M14.6649 3.05037L15.1526 2.4806L14.6649 3.05037C14.7366 3.11173 14.8011 3.18101 14.8572 3.25688L15.4602 2.81101L14.8572 3.25688C14.9519 3.38503 15.0286 3.57898 15.0494 4.01298C15.0709 4.46275 15.0298 5.0562 14.9669 5.9364L14.4656 12.9542C14.4267 13.4996 14.4001 13.8643 14.3572 14.1445C14.3158 14.4153 14.2672 14.5449 14.2167 14.6312C14.093 14.8425 13.9101 15.0129 13.6905 15.1211C13.6008 15.1654 13.4681 15.2046 13.195 15.2267C12.9125 15.2494 12.5468 15.25 12 15.25C11.4532 15.25 11.0875 15.2494 10.805 15.2267C10.5319 15.2046 10.3992 15.1654 10.3095 15.1211C10.0899 15.0129 9.90696 14.8425 9.78333 14.6312C9.73282 14.5449 9.6842 14.4153 9.64278 14.1445C9.59993 13.8643 9.57331 13.4996 9.53435 12.9542L9.03308 5.9364C8.97021 5.0562 8.92909 4.46275 8.9506 4.01298C8.97135 3.57898 9.04809 3.38503 9.14283 3.25688C9.19892 3.18101 9.26343 3.11173 9.33511 3.05037C9.45618 2.94674 9.64418 2.85639 10.0756 2.80476C10.5227 2.75126 11.1176 2.75 12 2.75C12.8824 2.75 13.4773 2.75126 13.9244 2.80476C14.3558 2.85639 14.5438 2.94674 14.6649 3.05037Z" fill="white" stroke="#97ABC7" stroke-width="1.5"/>
<circle cx="12" cy="19.5" r="1.75" fill="white" stroke="#97ABC7" stroke-width="1.5"/>
</svg>
