<svg width="16" height="16" viewBox="0 0 16 16" fill="none" xmlns="http://www.w3.org/2000/svg">
<path d="M15.7844 14.6982L13.65 12.5639C14.8995 11.0357 15.5139 9.08576 15.366 7.11735C15.2181 5.14894 14.3193 3.31268 12.8555 1.98838C11.3916 0.66408 9.47483 -0.0469334 7.50149 0.0024063C5.52815 0.051746 3.64926 0.857664 2.25346 2.25346C0.857664 3.64926 0.051746 5.52815 0.0024063 7.50149C-0.0469334 9.47483 0.66408 11.3916 1.98838 12.8555C3.31268 14.3193 5.14894 15.2181 7.11735 15.366C9.08576 15.5139 11.0357 14.8995 12.5639 13.65L14.6982 15.7844C14.8431 15.9243 15.0371 16.0017 15.2385 16C15.4399 15.9982 15.6326 15.9174 15.775 15.775C15.9174 15.6326 15.9982 15.4399 16 15.2385C16.0017 15.0371 15.9243 14.8431 15.7844 14.6982ZM7.70609 13.8513C6.49068 13.8513 5.30257 13.4909 4.292 12.8156C3.28143 12.1404 2.49378 11.1806 2.02866 10.0578C1.56355 8.93487 1.44185 7.69927 1.67897 6.50722C1.91608 5.31517 2.50135 4.2202 3.36078 3.36078C4.2202 2.50135 5.31517 1.91608 6.50722 1.67897C7.69927 1.44185 8.93487 1.56355 10.0578 2.02866C11.1806 2.49378 12.1404 3.28143 12.8156 4.292C13.4909 5.30257 13.8513 6.49068 13.8513 7.70609C13.8495 9.33534 13.2014 10.8973 12.0494 12.0494C10.8973 13.2014 9.33534 13.8495 7.70609 13.8513Z" fill="#BBBBBB"/>
</svg>
