<svg width="24" height="24" viewBox="0 0 24 24" fill="none" xmlns="http://www.w3.org/2000/svg">
<path d="M17.1265 17.1265C14.2952 19.9578 9.70478 19.9578 6.87348 17.1265C4.04217 14.2952 4.04217 9.70478 6.87348 6.87348C9.70478 4.04217 14.2952 4.04217 17.1265 6.87348C19.9578 9.70478 19.9578 14.2952 17.1265 17.1265Z" fill="#3F97FF" stroke="black" stroke-width="1.5" stroke-linecap="round"/>
<path d="M15.0052 15.0052C13.3455 16.6649 10.6545 16.6649 8.9948 15.0052C7.33507 13.3455 7.33507 10.6545 8.9948 8.9948C10.6545 7.33507 13.3455 7.33507 15.0052 8.9948C16.6649 10.6545 16.6649 13.3455 15.0052 15.0052Z" fill="#3F97FF" stroke="black" stroke-width="1.5" stroke-linecap="round"/>
<path d="M5.38381 5.03032L5.38381 5.03032L8.93409 8.58058C9.03172 8.67821 9.03172 8.8365 8.93409 8.93414C8.83646 9.03177 8.67816 9.03177 8.58053 8.93414L8.0502 9.46447L8.58053 8.93413L5.03026 5.38387C5.03026 5.38387 5.03026 5.38387 5.03025 5.38387C4.93262 5.28624 4.93263 5.12795 5.03026 5.03032C5.12789 4.93269 5.28618 4.93269 5.38381 5.03032ZM18.6161 5.03032L18.0858 4.49999L18.6161 5.03032C18.7137 4.93268 18.872 4.93268 18.9696 5.03032C19.0673 5.12795 19.0673 5.28624 18.9696 5.38387L15.4194 8.93413L15.9497 9.46447L15.4194 8.93414C15.3217 9.03177 15.1634 9.03177 15.0658 8.93414C14.9682 8.8365 14.9682 8.67821 15.0658 8.58058L18.6161 5.03032ZM15.0658 15.0659C15.1634 14.9682 15.3217 14.9682 15.4194 15.0659L18.9696 18.6161C19.0672 18.7137 19.0672 18.872 18.9696 18.9697C18.872 19.0673 18.7137 19.0673 18.6161 18.9697L15.0658 15.4194C14.9682 15.3218 14.9682 15.1635 15.0658 15.0659ZM8.58053 15.0659C8.67817 14.9682 8.83646 14.9682 8.93409 15.0659C9.03172 15.1635 9.03172 15.3218 8.93409 15.4194L5.38381 18.9697C5.28618 19.0673 5.12789 19.0673 5.03025 18.9697C4.93262 18.872 4.93262 18.7138 5.03025 18.6161L8.58053 15.0659L8.0502 14.5355L8.58053 15.0659Z" fill="#FFD33F" stroke="black" stroke-width="1.5" stroke-linecap="round"/>
<path d="M13.0607 13.0607C12.4749 13.6464 11.5251 13.6464 10.9393 13.0607C10.3536 12.4749 10.3536 11.5251 10.9393 10.9393C11.5251 10.3536 12.4749 10.3536 13.0607 10.9393C13.6464 11.5251 13.6464 12.4749 13.0607 13.0607Z" fill="#FFD33F" stroke="black"/>
</svg>
