<svg width="24" height="24" viewBox="0 0 24 24" fill="none" xmlns="http://www.w3.org/2000/svg">
<path d="M6.54656 6.56525L10.5466 4.56525C11.4917 4.09267 11.7465 3.98607 12 3.98607C12.2535 3.98607 12.5083 4.09267 13.4534 4.56525L17.4534 6.56525C18.0051 6.84109 18.3678 7.02346 18.6339 7.19276C18.8853 7.35274 18.9944 7.46737 19.0633 7.5789C19.1322 7.69044 19.186 7.83927 19.2166 8.13569C19.2491 8.4494 19.25 8.85533 19.25 9.47214V14.5279C19.25 15.1447 19.2491 15.5506 19.2166 15.8643C19.186 16.1607 19.1322 16.3096 19.0633 16.4211C18.9944 16.5326 18.8853 16.6473 18.6339 16.8072C18.3678 16.9765 18.0051 17.1589 17.4534 17.4348L13.4534 19.4348C12.5083 19.9073 12.2535 20.0139 12 20.0139C11.7465 20.0139 11.4917 19.9073 10.5466 19.4348L6.54656 17.4348C5.99487 17.1589 5.6322 16.9765 5.36612 16.8072C5.1147 16.6473 5.00562 16.5326 4.93669 16.4211C4.86776 16.3096 4.81401 16.1607 4.78336 15.8643C4.75092 15.5506 4.75 15.1447 4.75 14.5279V9.47214C4.75 8.85533 4.75092 8.4494 4.78336 8.13569C4.81401 7.83927 4.86776 7.69044 4.93669 7.5789C5.00562 7.46737 5.1147 7.35274 5.36612 7.19276C5.6322 7.02346 5.99487 6.84109 6.54656 6.56525Z" fill="#3F97FF" stroke="black" stroke-width="1.5"/>
<path d="M5.19797 7.20096L9.44522 5.20225C10.7013 4.61114 11.3294 4.31558 12 4.31558C12.6706 4.31558 13.2987 4.61114 14.5548 5.20225L18.802 7.20096C18.9229 7.25782 19 7.37936 19 7.51291C19 7.63281 18.9377 7.74409 18.8355 7.80679L15.1374 10.0754C13.6104 11.0121 12.8468 11.4805 12 11.4805C11.1532 11.4805 10.3896 11.0121 8.86261 10.0754L5.16449 7.80679C5.06229 7.74409 5 7.63281 5 7.51291C5 7.37936 5.07713 7.25782 5.19797 7.20096Z" fill="#FFD33F"/>
<path d="M6.54656 6.56525L10.5466 4.56525C11.4917 4.09267 11.7465 3.98607 12 3.98607C12.2535 3.98607 12.5083 4.09267 13.4534 4.56525L17.4534 6.56525C18.0051 6.84109 18.3678 7.02346 18.6339 7.19276C18.8853 7.35274 18.9944 7.46737 19.0633 7.5789C19.1322 7.69044 19.186 7.83927 19.2166 8.13569C19.2491 8.4494 19.25 8.85533 19.25 9.47214V14.5279C19.25 15.1447 19.2491 15.5506 19.2166 15.8643C19.186 16.1607 19.1322 16.3096 19.0633 16.4211C18.9944 16.5326 18.8853 16.6473 18.6339 16.8072C18.3678 16.9765 18.0051 17.1589 17.4534 17.4348L13.4534 19.4348C12.5083 19.9073 12.2535 20.0139 12 20.0139C11.7465 20.0139 11.4917 19.9073 10.5466 19.4348L6.54656 17.4348C5.99487 17.1589 5.6322 16.9765 5.36612 16.8072C5.1147 16.6473 5.00562 16.5326 4.93669 16.4211C4.86776 16.3096 4.81401 16.1607 4.78336 15.8643C4.75092 15.5506 4.75 15.1447 4.75 14.5279V9.47214C4.75 8.85533 4.75092 8.4494 4.78336 8.13569C4.81401 7.83927 4.86776 7.69044 4.93669 7.5789C5.00562 7.46737 5.1147 7.35274 5.36612 7.19276C5.6322 7.02346 5.99487 6.84109 6.54656 6.56525Z" stroke="black" stroke-width="1.5"/>
<path d="M5.5 16.25L8 15L9.25 14.375M18.5 16.25L16 15L14.75 14.375" stroke="black" stroke-width="1.5" stroke-linecap="round"/>
<path d="M12 11V19.5M12 11L18 8M12 11L6 8" stroke="black" stroke-width="1.5" stroke-linecap="round"/>
</svg>
