<svg width="24" height="24" viewBox="0 0 24 24" fill="none" xmlns="http://www.w3.org/2000/svg">
<path d="M8.41026 2C8.83509 2 9.17949 2.3444 9.17949 2.76923C9.17949 3.19407 8.83509 3.53846 8.41026 3.53846H4.62632L9.97983 8.89197C10.2802 9.19237 10.2802 9.67942 9.97983 9.97983C9.67942 10.2802 9.19237 10.2802 8.89197 9.97983L3.53846 4.62632V8.41026C3.53846 8.83509 3.19407 9.17949 2.76923 9.17949C2.3444 9.17949 2 8.83509 2 8.41026V4C2 2.89543 2.89543 2 4 2H8.41026Z" fill="#97ABC7"/>
<path d="M15.5897 2C15.1649 2 14.8205 2.3444 14.8205 2.76923C14.8205 3.19407 15.1649 3.53846 15.5897 3.53846H19.3737L14.0202 8.89197C13.7198 9.19237 13.7198 9.67942 14.0202 9.97983C14.3206 10.2802 14.8076 10.2802 15.108 9.97983L20.4615 4.62632V8.41026C20.4615 8.83509 20.8059 9.17949 21.2308 9.17949C21.6556 9.17949 22 8.83509 22 8.41026V4C22 2.89543 21.1046 2 20 2H15.5897Z" fill="#97ABC7"/>
<path d="M14.8205 21.2308C14.8205 21.6556 15.1649 22 15.5897 22H20C21.1046 22 22 21.1046 22 20V15.5897C22 15.1649 21.6556 14.8205 21.2308 14.8205C20.8059 14.8205 20.4615 15.1649 20.4615 15.5897V19.3737L15.108 14.0202C14.8076 13.7198 14.3206 13.7198 14.0202 14.0202C13.7198 14.3206 13.7198 14.8076 14.0202 15.108L19.3737 20.4615H15.5897C15.1649 20.4615 14.8205 20.8059 14.8205 21.2308Z" fill="#97ABC7"/>
<path d="M8.41026 22C8.83509 22 9.17949 21.6556 9.17949 21.2308C9.17949 20.8059 8.83509 20.4615 8.41026 20.4615H4.62632L9.97983 15.108C10.2802 14.8076 10.2802 14.3206 9.97983 14.0202C9.67942 13.7198 9.19237 13.7198 8.89197 14.0202L3.53846 19.3737V15.5897C3.53846 15.1649 3.19407 14.8205 2.76923 14.8205C2.3444 14.8205 2 15.1649 2 15.5897V20C2 21.1046 2.89543 22 4 22H8.41026Z" fill="#97ABC7"/>
</svg>
