<svg width="27" height="27" viewBox="0 0 27 27" fill="none" xmlns="http://www.w3.org/2000/svg">
<circle cx="13.5" cy="13.5" r="13.5" fill="#3F8DFD"/>
<g clip-path="url(#clip0_1_6)">
<path d="M17.0595 11.9884L13.4828 9.36564C13.2034 9.16107 12.8728 9.03785 12.5277 9.00965C12.1826 8.98145 11.8364 9.04935 11.5276 9.20585C11.2187 9.36234 10.9592 9.60131 10.7778 9.89626C10.5964 10.1912 10.5003 10.5306 10.5 10.8769V16.125C10.4995 16.4716 10.5951 16.8116 10.7763 17.107C10.9575 17.4025 11.2172 17.6418 11.5263 17.7985C11.8355 17.9551 12.1821 18.0229 12.5275 17.9943C12.8729 17.9656 13.2036 17.8417 13.4828 17.6363L17.0595 15.0135C17.2968 14.8393 17.4898 14.6117 17.6228 14.3491C17.7559 14.0865 17.8252 13.7963 17.8252 13.5019C17.8252 13.2075 17.7559 12.9173 17.6228 12.6546C17.4898 12.392 17.2968 12.1644 17.0595 11.9903V11.9884Z" fill="white"/>
</g>
<defs>
<clipPath id="clip0_1_6">
<rect width="9" height="9" fill="white" transform="translate(9 9)"/>
</clipPath>
</defs>
</svg>
