<svg width="18" height="18" viewBox="0 0 18 18" fill="none" xmlns="http://www.w3.org/2000/svg">
<path d="M0.989347 9.46051L3.66082 11.475L2.64626 14.7192C2.4823 15.2223 2.48022 15.7667 2.64034 16.2712C2.80045 16.7757 3.11417 17.2132 3.53475 17.5186C3.94811 17.8338 4.44904 18.0026 4.9629 18C5.47675 17.9973 5.97602 17.8233 6.38631 17.5039L8.9985 15.5188L11.6114 17.5016C12.0241 17.8149 12.5223 17.9851 13.0345 17.9877C13.5467 17.9903 14.0465 17.8251 14.4621 17.5159C14.8776 17.2067 15.1875 16.7694 15.3472 16.2669C15.5069 15.7643 15.5081 15.2225 15.3507 14.7192L14.3362 11.475L17.0077 9.46051C17.4197 9.14943 17.7261 8.71185 17.8829 8.21026C18.0397 7.70868 18.039 7.16875 17.8809 6.6676C17.7228 6.16645 17.4153 5.72972 17.0024 5.41977C16.5895 5.10983 16.0923 4.94254 15.5819 4.94179H12.3003L11.3045 1.73715C11.1479 1.23271 10.8402 0.792657 10.4258 0.480446C10.0113 0.168235 9.51153 0 8.9985 0C8.48547 0 7.98569 0.168235 7.57124 0.480446C7.15679 0.792657 6.84908 1.23271 6.69248 1.73715L5.69668 4.94179H2.41813C1.90766 4.94254 1.41047 5.10983 0.997586 5.41977C0.5847 5.72972 0.277236 6.16645 0.119109 6.6676C-0.039017 7.16875 -0.0397169 7.70868 0.11711 8.21026C0.385292 9.068 0.989347 9.46051 0.989347 9.46051Z" fill="#FEC705"/>
</svg>
