<svg width="18" height="18" viewBox="0 0 18 18" fill="none" xmlns="http://www.w3.org/2000/svg">
<path d="M1.59143 8.66208L1.56353 8.64104L1.54783 8.63084C1.54378 8.62778 1.53678 8.62235 1.52733 8.61455C1.49947 8.59156 1.45243 8.54965 1.39759 8.48862C1.28757 8.3662 1.15416 8.17606 1.07155 7.91185C0.975733 7.60541 0.976167 7.27465 1.07276 6.96851C1.16928 6.66262 1.35517 6.40175 1.59793 6.21951C1.84002 6.03778 2.12741 5.94234 2.41904 5.94179H5.69668H6.43311L6.65164 5.23853L7.64744 2.03389L7.64752 2.03362C7.74312 1.72567 7.92921 1.46277 8.17293 1.27918C8.41612 1.09598 8.70522 1 8.9985 1C9.29178 1 9.58088 1.09598 9.82407 1.27918C10.0678 1.46277 10.2539 1.72567 10.3495 2.03362L10.3496 2.03389L11.3454 5.23853L11.5639 5.94179H12.3003H15.581C15.8726 5.94234 16.16 6.03778 16.4021 6.21951C16.6448 6.40175 16.8307 6.66262 16.9272 6.96851C17.0238 7.27465 17.0243 7.60541 16.9285 7.91185C16.8328 8.21785 16.6477 8.47916 16.4056 8.66208C16.4055 8.66213 16.4054 8.66218 16.4054 8.66223C16.4053 8.66229 16.4052 8.66234 16.4051 8.6624L13.7341 10.6766L13.1714 11.1009L13.3818 11.7735L14.3963 15.0176C14.3963 15.0176 14.3963 15.0177 14.3963 15.0177C14.4925 15.3251 14.4917 15.6571 14.3942 15.964C14.2967 16.2707 14.1094 16.5319 13.8651 16.7136C13.6214 16.895 13.3323 16.9892 13.0395 16.9877C12.7467 16.9863 12.4584 16.8891 12.2163 16.7052L12.2159 16.7049L9.60299 14.7222L8.99806 14.2632L8.39345 14.7226L5.78127 16.7077L5.78122 16.7076L5.77199 16.7148C5.53366 16.9004 5.24799 16.9985 4.95773 17C4.66749 17.0015 4.38102 16.9063 4.14107 16.7234L4.13177 16.7163L4.12229 16.7094C3.87795 16.532 3.69025 16.2736 3.59348 15.9687C3.49663 15.6635 3.4979 15.3333 3.59705 15.029L3.59712 15.029L3.60067 15.0177L4.61523 11.7735L4.82558 11.1009L4.2629 10.6766L1.59143 8.66208Z" stroke="#FEC705" stroke-width="2"/>
</svg>
