<svg width="24" height="24" viewBox="0 0 24 24" fill="none" xmlns="http://www.w3.org/2000/svg">
<path d="M4.75 6C4.75 5.03599 4.75159 4.38843 4.81654 3.90539C4.87858 3.44393 4.9858 3.24643 5.11612 3.11612C5.24643 2.9858 5.44393 2.87858 5.90539 2.81654C6.38843 2.75159 7.03599 2.75 8 2.75H16C16.964 2.75 17.6116 2.75159 18.0946 2.81654C18.5561 2.87858 18.7536 2.9858 18.8839 3.11612L19.4142 2.58579L18.8839 3.11612C19.0142 3.24643 19.1214 3.44393 19.1835 3.90539C19.2484 4.38843 19.25 5.03599 19.25 6V18.8985C19.25 19.8479 19.2481 20.4745 19.1858 20.9032C19.1567 21.1033 19.1222 21.2027 19.1002 21.2482C19.0511 21.236 18.9527 21.1989 18.7804 21.0931C18.4112 20.8664 17.9287 20.4666 17.1995 19.8586L15.0418 18.0596L15.0063 18.03C14.4242 17.5447 13.9349 17.1367 13.4989 16.8562C13.0366 16.5587 12.5603 16.354 12 16.354C11.4397 16.354 10.9634 16.5587 10.5011 16.8562C10.0651 17.1367 9.57581 17.5447 8.99373 18.03L8.95823 18.0596L6.80047 19.8586C6.07129 20.4666 5.58877 20.8664 5.21964 21.0931C5.04734 21.1989 4.94894 21.236 4.89983 21.2482C4.87777 21.2027 4.84327 21.1033 4.81421 20.9032C4.75194 20.4745 4.75 19.8479 4.75 18.8986V6ZM19.0778 21.2823C19.0775 21.2816 19.0802 21.2776 19.0867 21.2724C19.0813 21.2804 19.0781 21.283 19.0778 21.2823ZM19.1274 21.2533C19.1355 21.2516 19.1403 21.2521 19.1407 21.2528C19.141 21.2535 19.137 21.2543 19.1274 21.2533ZM4.85933 21.2528C4.85971 21.2521 4.8645 21.2517 4.87259 21.2533C4.863 21.2543 4.85896 21.2535 4.85933 21.2528ZM4.91334 21.2724C4.91981 21.2775 4.9225 21.2815 4.92222 21.2823C4.92195 21.283 4.91872 21.2804 4.91334 21.2724Z" fill="white" stroke="#97ABC7" stroke-width="1.5" stroke-linecap="round"/>
<rect x="7.875" y="5.875" width="8.25" height="0.75" rx="0.375" stroke="#97ABC7" stroke-width="0.75" stroke-linecap="round"/>
</svg>
