<svg width="16" height="16" viewBox="0 0 16 16" fill="none" xmlns="http://www.w3.org/2000/svg">
<g clip-path="url(#clip0_110_251)">
<path d="M15.514 6.27935C14.48 4.59535 12.128 1.77002 8.00003 1.77002C3.87203 1.77002 1.52003 4.59535 0.486034 6.27935C0.166386 6.79636 -0.00292969 7.39218 -0.00292969 8.00002C-0.00292969 8.60786 0.166386 9.20368 0.486034 9.72069C1.52003 11.4047 3.87203 14.23 8.00003 14.23C12.128 14.23 14.48 11.4047 15.514 9.72069C15.8337 9.20368 16.003 8.60786 16.003 8.00002C16.003 7.39218 15.8337 6.79636 15.514 6.27935ZM14.3774 9.02269C13.4894 10.4667 11.4794 12.8967 8.00003 12.8967C4.5207 12.8967 2.5107 10.4667 1.6227 9.02269C1.43279 8.71538 1.3322 8.36127 1.3322 8.00002C1.3322 7.63877 1.43279 7.28466 1.6227 6.97735C2.5107 5.53335 4.5207 3.10335 8.00003 3.10335C11.4794 3.10335 13.4894 5.53069 14.3774 6.97735C14.5673 7.28466 14.6679 7.63877 14.6679 8.00002C14.6679 8.36127 14.5673 8.71538 14.3774 9.02269Z" fill="white"/>
<path d="M8.00008 4.66669C7.34081 4.66669 6.69635 4.86218 6.14818 5.22845C5.60002 5.59473 5.17278 6.11532 4.92048 6.72441C4.66819 7.3335 4.60218 8.00372 4.7308 8.65032C4.85942 9.29693 5.17689 9.89087 5.64306 10.357C6.10924 10.8232 6.70318 11.1407 7.34978 11.2693C7.99639 11.3979 8.66661 11.3319 9.27569 11.0796C9.88478 10.8273 10.4054 10.4001 10.7716 9.85192C11.1379 9.30376 11.3334 8.65929 11.3334 8.00002C11.3324 7.11629 10.9808 6.26906 10.3559 5.64417C9.73104 5.01928 8.88381 4.66775 8.00008 4.66669ZM8.00008 10C7.60452 10 7.21784 9.88272 6.88894 9.66296C6.56004 9.4432 6.3037 9.13084 6.15232 8.76539C6.00095 8.39994 5.96134 7.9978 6.03851 7.60984C6.11568 7.22188 6.30616 6.86551 6.58587 6.58581C6.86557 6.3061 7.22194 6.11562 7.6099 6.03845C7.99786 5.96128 8.4 6.00089 8.76545 6.15226C9.1309 6.30364 9.44326 6.55998 9.66302 6.88888C9.88278 7.21778 10.0001 7.60446 10.0001 8.00002C10.0001 8.53045 9.78937 9.03916 9.4143 9.41423C9.03922 9.78931 8.53052 10 8.00008 10Z" fill="white"/>
</g>
<defs>
<clipPath id="clip0_110_251">
<rect width="16" height="16" fill="white"/>
</clipPath>
</defs>
</svg>
