<svg width="24" height="24" viewBox="0 0 24 24" fill="none" xmlns="http://www.w3.org/2000/svg">
<path d="M17.3958 17.1756L13.1412 18.7711C12.3952 19.0508 12.1952 19.114 12 19.114C11.8048 19.114 11.6048 19.0508 10.8588 18.7711L6.60417 17.1756C6.08887 16.9823 5.74874 16.854 5.49352 16.7312C5.25054 16.6143 5.13872 16.5268 5.06433 16.4429C4.99853 16.3686 4.94181 16.2867 4.89537 16.1991C4.84286 16.0999 4.80021 15.9645 4.77606 15.6959C4.7507 15.4139 4.75 15.0503 4.75 14.5C4.75 13.9497 4.7507 13.5861 4.77606 13.3041C4.80021 13.0355 4.84286 12.9001 4.89537 12.8009C4.94182 12.7133 4.99853 12.6314 5.06433 12.5571C5.13872 12.4732 5.25054 12.3857 5.49352 12.2688C5.74874 12.146 6.08887 12.0177 6.60416 11.8244L10.8588 10.2289C11.6048 9.94918 11.8048 9.886 12 9.886C12.1952 9.886 12.3952 9.94918 13.1412 10.2289L17.3958 11.8244C17.9111 12.0177 18.2513 12.146 18.5065 12.2688C18.7495 12.3857 18.8613 12.4732 18.9357 12.5571C19.0015 12.6314 19.0582 12.7133 19.1046 12.8009L19.7674 12.4499L19.1046 12.8009C19.1571 12.9001 19.1998 13.0355 19.2239 13.3041C19.2493 13.5861 19.25 13.9497 19.25 14.5C19.25 15.0503 19.2493 15.4139 19.2239 15.6959C19.1998 15.9645 19.1571 16.0999 19.1046 16.1991C19.0582 16.2867 19.0015 16.3686 18.9357 16.4429C18.8613 16.5268 18.7495 16.6143 18.5065 16.7312C18.2513 16.854 17.9111 16.9823 17.3958 17.1756Z" fill="#3F97FF" stroke="black" stroke-width="1.5" stroke-linecap="round"/>
<path d="M16 14L12.7022 15.2367C12.2495 15.4064 11.7505 15.4064 11.2978 15.2367L8 14" stroke="black" stroke-width="1.5" stroke-linecap="round"/>
<rect x="11.25" y="7" width="1.5" height="6" rx="0.75" fill="black"/>
<circle cx="12" cy="7" r="2.25" fill="#FFD33F" stroke="black" stroke-width="1.5" stroke-linecap="round"/>
</svg>
