<svg width="24" height="24" viewBox="0 0 24 24" fill="none" xmlns="http://www.w3.org/2000/svg">
<path d="M16.6528 21.25H7.3472C6.30804 21.25 5.60679 21.2483 5.08745 21.1764C4.58953 21.1074 4.38453 20.9885 4.25375 20.8464C4.12297 20.7043 4.02152 20.4901 3.99414 19.9882C3.96558 19.4646 4.02213 18.7657 4.10842 17.7301L4.44176 13.7301C4.51598 12.8395 4.56709 12.2439 4.66248 11.8013C4.75335 11.3797 4.86499 11.1987 4.99388 11.0801C5.12276 10.9616 5.31237 10.8653 5.74005 10.8098C6.18906 10.7515 6.78682 10.75 7.68053 10.75H16.3195C17.2132 10.75 17.8109 10.7515 18.2599 10.8098C18.6876 10.8653 18.8772 10.9616 19.0061 11.0801C19.135 11.1987 19.2467 11.3797 19.3375 11.8013C19.4329 12.2439 19.484 12.8395 19.5582 13.7301L19.8916 17.7301C19.9779 18.7657 20.0344 19.4646 20.0059 19.9882C19.9785 20.4901 19.877 20.7043 19.7463 20.8464C19.6155 20.9885 19.4105 21.1074 18.9125 21.1764C18.3932 21.2483 17.692 21.25 16.6528 21.25Z" fill="#3F97FF" stroke="black" stroke-width="1.5" stroke-linecap="round"/>
<path d="M14.3099 10.75L15.1849 21.25H8.8151L9.6901 10.75H14.3099Z" stroke="black" stroke-width="1.5" stroke-linecap="round"/>
<path d="M15.25 6C15.25 6.95928 14.8441 8.59523 14.1552 9.9978C13.814 10.6926 13.4255 11.2835 13.0238 11.6894C12.6159 12.1017 12.2703 12.25 12 12.25C11.7297 12.25 11.3841 12.1017 10.9762 11.6894C10.5745 11.2835 10.186 10.6926 9.84476 9.9978C9.15592 8.59523 8.75 6.95928 8.75 6C8.75 4.20507 10.2051 2.75 12 2.75C13.7949 2.75 15.25 4.20507 15.25 6Z" fill="#FFD33F" stroke="black" stroke-width="1.5" stroke-linecap="round"/>
<circle cx="12" cy="6" r="1" fill="black"/>
<rect x="6.375" y="15.625" width="11.25" height="0.75" rx="0.375" stroke="black" stroke-width="0.75" stroke-linecap="round"/>
</svg>
