<svg width="195" height="28" viewBox="0 0 195 28" fill="none" xmlns="http://www.w3.org/2000/svg">
<path fill-rule="evenodd" clip-rule="evenodd" d="M17.9182 0.996932C19.59 1.20588 21.219 0.349167 25.0769 0.035752C27.6489 -0.173192 29.0737 0.591805 29.7263 0.830726C29.8389 0.87196 29.9488 0.912195 30.0495 0.955132C32.2786 1.87452 33.436 3.75509 34.1218 5.76103C34.9363 8.18488 36.1365 10.1908 37.9798 12.0714C41.7521 15.9161 40.0374 22.1011 37.0367 24.8593C34.9791 26.7398 32.3214 27.7428 29.6637 27.7428C27.5829 27.7309 25.4986 27.8007 23.4128 27.8706C18.1938 28.0455 12.9654 28.2207 7.75887 27.1159C4.58675 26.4473 2.40055 24.7339 1.02882 21.9339C0.969788 21.8188 0.920711 21.6908 0.871796 21.5632C0.678482 21.0588 -2.33525e-05 18.8415 6.0282e-10 18.2146V17.1698C6.0282e-10 17.1698 0.263627 14.3526 0.428666 13.9102C1.5432 11.1938 3.47219 9.22965 6.42999 8.35205C6.94052 8.22762 7.09478 7.91795 7.26405 7.57816C7.32218 7.46147 7.38208 7.34122 7.45878 7.22371C7.70993 6.80855 7.93326 6.3744 8.15711 5.93924C8.81206 4.66605 9.47151 3.3841 10.8452 2.54318C13.0743 1.16409 15.3462 0.662608 17.9182 0.996932ZM10.7595 12.5729C10.7166 11.9878 10.4166 11.7371 9.77357 11.7371C9.28305 11.7769 9.10436 12.0828 9.05166 12.5097C9.0209 12.5297 8.99005 12.5508 8.9591 12.5729C8.93766 12.6983 8.92695 12.8236 8.91623 12.949C8.90551 13.0744 8.8948 13.1997 8.87336 13.3251C8.85056 13.352 8.82924 13.3793 8.80931 13.407C7.99137 13.8956 8.08424 14.5995 8.17703 15.3028C8.23188 15.7185 8.2867 16.134 8.15339 16.5048C8.11177 16.5465 8.06611 16.5871 8.01603 16.6266C7.72315 16.6266 7.4372 16.6401 7.15261 16.6535C6.72908 16.6735 6.30856 16.6933 5.8727 16.6683C5.05824 16.6683 4.45811 16.8773 4.54384 17.7967C4.62957 18.5489 4.88677 19.3011 5.78697 19.134C7.8017 18.7997 8.5733 19.6355 8.48756 21.516C8.48756 21.7109 8.61869 21.9201 8.75354 22.1351C8.84999 22.2889 8.94834 22.4457 9.00196 22.6026C9.17343 23.0623 9.43063 23.2294 9.94503 23.2712C10.4488 23.304 10.5579 23.0032 10.664 22.7106C10.6933 22.6298 10.7224 22.5496 10.7595 22.4772C10.7957 22.4183 10.8337 22.3586 10.872 22.2983L10.8723 22.2979C11.1058 21.9304 11.3536 21.5405 11.3168 21.1817C11.0596 19.3011 12.0026 18.925 13.6315 19.134C14.7461 19.3011 15.1747 18.6743 15.1747 17.6713C15.1747 16.6683 14.4889 16.543 13.7601 16.6683C11.9169 17.0027 11.1882 16.2922 11.3596 14.4535C11.3891 14.0225 11.1957 13.5915 11.0023 13.1606C10.9144 12.9647 10.8265 12.7688 10.7595 12.5729ZM26.4487 19.3012C25.377 19.3847 24.6912 18.7161 24.5626 17.8385C24.3911 16.6684 25.4199 16.0415 26.3201 16.0833C27.0488 16.0833 27.949 16.6266 27.949 17.7549C27.9062 18.7579 27.5204 19.3012 26.4487 19.3012ZM35.665 17.9639C35.7507 18.9668 35.1506 19.3429 34.1218 19.3012C33.0073 19.2594 32.3214 18.5907 32.3214 17.6295C32.3214 16.7519 33.1359 15.9579 34.0361 16.0415C34.9363 16.1251 35.7936 16.7519 35.665 17.9639ZM28.6778 21.3071C28.6349 20.2623 29.3208 20.0952 30.3067 20.0116C31.0765 19.9538 31.335 20.4145 31.5908 20.8702C31.7054 21.0743 31.8194 21.2773 31.9785 21.4324C31.7303 21.6441 31.6056 21.9762 31.4826 22.3039C31.2655 22.8819 31.0535 23.4464 30.1781 23.313C29.235 23.1459 28.5063 22.4772 28.6778 21.3071ZM28.6777 13.8684C28.592 12.6565 29.3207 12.4893 30.3066 12.4475C31.4212 12.4057 31.8927 13.3669 31.8927 13.9102C31.8927 14.746 31.0354 15.6654 30.1352 15.5818C29.3636 15.5818 28.3777 14.9967 28.6777 13.8684Z" fill="#3F8DFD"/>
<path fill-rule="evenodd" clip-rule="evenodd" d="M180.354 7.66944H180.382C179.311 6.37394 178.239 6.37394 177.082 7.66944H177.196L177.163 7.68847L177.125 7.71125C177.04 8.16681 176.908 8.61326 176.776 9.06112C176.508 9.96904 176.238 10.8828 176.353 11.8903C176.439 12.6425 175.924 12.8515 175.281 12.3918C172.581 10.5112 168.508 13.1022 168.38 15.944C167.823 17.0723 167.865 18.2006 168.38 19.4126C168.594 23.2155 172.967 24.6782 175.624 22.923C175.654 22.9038 175.684 22.8835 175.715 22.8625C176.095 22.6089 176.607 22.2667 177.082 22.923C177.896 24.0513 179.182 23.7588 180.082 23.3827C180.897 23.0483 181.197 22.0036 181.154 20.9588C181.09 18.5767 181.098 16.1946 181.106 13.8125C181.108 13.0185 181.111 12.2246 181.111 11.4306C181.111 11.2458 181.115 11.0611 181.118 10.8768V10.8744C181.139 9.7674 181.16 8.67797 180.425 7.71125L180.392 7.69162L180.354 7.66944ZM173.524 20.2066C172.881 20.2484 172.666 19.9141 172.666 19.329C172.709 18.2006 172.709 17.0723 172.709 15.944C172.709 15.3589 173.009 15.1082 173.567 15.0664H175.324C177.425 16.6544 177.468 18.7021 175.367 20.2066H173.524Z" fill="#14243C"/>
<path d="M134.987 23.5498C133.958 23.5498 133.572 22.4632 133.615 22.0871C133.628 21.2006 133.574 20.3063 133.52 19.4102C133.396 17.3495 133.271 15.279 133.958 13.2694C134.558 11.5559 135.844 11.2216 137.13 12.5171C137.945 13.3529 138.588 13.1022 139.059 12.5589C139.916 11.5977 140.945 11.5977 141.845 11.9738C142.66 12.3082 142.831 13.2276 142.703 14.1052C142.574 15.0246 141.931 15.1499 141.202 15.1917C139.059 15.4007 138.03 16.3618 138.202 18.6185L138.21 18.6981C138.379 20.4303 138.56 22.2732 136.744 23.508C136.144 23.9259 135.587 23.9259 134.987 23.5498Z" fill="#14243C"/>
<path d="M151.362 20.2484C152.648 19.9558 153.677 20.4573 153.719 21.6692C153.762 23.0065 152.562 23.4244 151.319 23.5498C150.162 24.0513 149.004 24.0931 147.847 23.5498C145.532 23.0483 143.86 21.4185 143.517 19.3708C143.003 18.2424 143.003 17.1141 143.517 15.9439C143.774 13.5201 145.746 12.5589 147.632 11.9738C149.561 11.3888 151.662 11.5559 153.419 12.8514C153.934 13.2276 153.891 13.8544 153.677 14.3977C153.267 15.4134 152.438 15.2641 151.666 15.125C151.548 15.1038 151.432 15.0829 151.319 15.0663C151.279 15.043 151.239 15.0206 151.199 14.9991C151.225 15.0343 151.25 15.0706 151.276 15.1081C150.467 15.1081 149.616 15.1081 148.723 15.149C148.622 15.3174 148.481 15.4665 148.34 15.616C148.044 15.9281 147.747 16.2423 147.804 16.738C147.79 16.7641 147.776 16.7901 147.763 16.8161C147.783 17.2271 147.794 17.6383 147.804 18.0545C147.814 18.4384 147.824 18.8266 147.842 19.2231C147.857 19.2445 147.873 19.2658 147.89 19.2872C147.932 19.8304 148.19 20.123 148.747 20.123C148.766 20.1389 148.786 20.1543 148.805 20.1693C149.22 20.1872 149.626 20.1969 150.033 20.2066C150.472 20.217 150.912 20.2275 151.362 20.2484Z" fill="#14243C"/>
<path d="M93.9215 19.0248C93.9409 19.5552 93.9622 20.1392 93.0633 20.2066C92.5008 20.2066 91.976 20.1699 91.4182 20.1308L91.3057 20.123C91.3025 20.1467 91.2999 20.1697 91.2979 20.1922C90.5303 19.9623 90.5516 19.349 90.571 18.789C90.5741 18.7025 90.577 18.6173 90.577 18.535C90.5341 17.0723 90.5341 15.6514 90.577 14.1888C90.577 12.8933 90.2769 11.8903 88.648 11.8485C86.9762 11.8067 86.4189 12.8097 86.2903 14.0634L86.2641 14.3838C86.1411 15.8748 86.0133 17.4239 86.3332 18.8275C86.3997 19.1193 86.4539 19.4253 86.5088 19.7354C86.8075 21.4239 87.1286 23.2386 89.5911 23.5916C90.4484 24.0931 91.3486 24.0931 92.2059 23.5916C93.2776 22.7976 94.0921 22.6304 95.4638 23.4244C97.0927 24.3856 98.2501 23.4244 98.293 21.5439C98.293 20.7359 98.2882 19.928 98.2835 19.12C98.2739 17.5041 98.2644 15.8882 98.293 14.2723C98.293 12.8515 97.9072 11.8485 96.2354 11.8485C94.4779 11.8067 93.9635 12.8515 93.9635 14.3141C93.942 15.0246 93.942 15.7455 93.942 16.4716C93.942 17.1977 93.942 17.929 93.9206 18.6603C93.9123 18.7735 93.9168 18.8976 93.9215 19.0248Z" fill="#14243C"/>
<path d="M67.3005 23.5498C65.2858 23.1319 63.9998 21.7528 63.9998 19.6633C63.9712 17.2967 63.9807 14.9487 63.9902 12.5945C63.995 11.4151 63.9998 10.2341 63.9998 9.04853C63.9998 7.62765 64.8571 6.91721 66.1431 6.91721C67.5148 6.87542 68.2436 7.66944 68.2436 9.09032C68.2436 10.0662 68.2483 11.0421 68.2531 12.0164L68.2531 12.0187C68.2626 13.9643 68.2721 15.9037 68.2436 17.8245L68.2408 17.9156C68.198 19.3001 68.1599 20.5346 70.2154 20.2484C70.5734 20.1902 70.6407 20.4356 70.7064 20.6747C70.735 20.7792 70.7634 20.8825 70.8155 20.9588C71.3299 20.9588 71.5871 21.1678 71.63 21.711C71.5871 22.2543 71.5014 22.6722 70.8155 22.6722C70.8155 23.2573 70.4726 23.508 69.9154 23.508C69.058 24.0095 68.1578 24.0095 67.3005 23.5498Z" fill="#14243C"/>
<path fill-rule="evenodd" clip-rule="evenodd" d="M111.496 7.00078C110.767 6.70825 109.781 6.62467 109.353 7.71122C108.334 8.15244 108.399 8.903 108.462 9.6387C108.494 10.0179 108.526 10.3932 108.41 10.7201C108.358 10.9195 108.395 11.1598 108.432 11.401C108.517 11.9647 108.604 12.5337 107.575 12.5993C107.271 11.9684 106.723 11.8476 106.052 11.8067C101.98 11.5559 100.565 13.8126 100.008 17.3648C99.579 20.2901 101.508 22.9229 104.166 23.5498C105.066 24.0095 105.923 24.0095 106.781 23.508C107.024 23.4217 107.251 23.274 107.476 23.1269C108.124 22.7045 108.764 22.287 109.781 23.3408C110.81 24.3856 112.825 23.3826 112.825 22.0036C112.846 19.8096 112.846 17.6051 112.846 15.3954V15.3919C112.846 13.1835 112.846 10.9696 112.868 8.75598C112.868 7.75301 112.139 7.25153 111.496 7.00078ZM104.98 15.944C104.894 15.2753 105.28 15.1081 105.838 15.1081C106.438 14.732 106.995 14.732 107.595 15.1499C108.667 16.1529 109.01 19.2454 108.152 20.0812C107.038 21.1678 106.009 20.917 104.98 19.4126C104.967 19.384 104.953 19.3554 104.94 19.3269L104.937 19.4126C103.608 18.2424 103.651 17.0723 104.98 15.944Z" fill="#14243C"/>
<path fill-rule="evenodd" clip-rule="evenodd" d="M76.7311 23.5498C73.3447 23.1319 71.33 20.3737 71.5872 17.0723C71.8444 14.3977 74.4592 11.9739 77.3313 11.8067C82.1752 11.5142 85.0044 14.2306 84.4471 19.0782C84.1899 21.2513 82.0037 23.2155 79.346 23.5498C78.4458 24.0095 77.5885 24.0095 76.7311 23.5498ZM80.2462 18.2006C80.632 19.7051 79.3889 20.5827 78.06 20.5409C76.5168 20.4991 75.7881 19.2454 75.8738 17.6574C75.9595 16.1111 76.3453 14.9828 78.2315 15.0663C80.1766 15.1454 80.2063 16.4568 80.2399 17.9415C80.2419 18.0274 80.2438 18.1138 80.2462 18.2006Z" fill="#14243C"/>
<path fill-rule="evenodd" clip-rule="evenodd" d="M182.912 16.7797C183.297 14.2723 185.355 12.0992 187.67 11.8485C190.799 11.5141 193.542 12.3082 194.314 15.6932C194.378 15.9753 194.587 15.9753 194.796 15.9753C194.866 15.9753 194.936 15.9753 195 15.9857V18.4931C194.289 18.4932 193.573 18.4886 192.854 18.4839C191.406 18.4746 189.945 18.4652 188.484 18.4932C188.388 18.4932 188.277 18.4785 188.162 18.4632C187.761 18.4103 187.308 18.3504 187.241 18.8693C187.155 19.4125 187.155 20.123 188.098 20.1648C188.677 20.1648 189.266 20.1752 189.856 20.1857C190.445 20.1961 191.035 20.2066 191.614 20.2066C191.573 20.2499 191.533 20.2918 191.493 20.3321C191.533 20.3186 191.573 20.3046 191.613 20.2901C192.269 20.2386 192.807 20.0474 193.243 19.8274C194.683 20.046 194.836 20.758 194.1 22.6722C193.675 22.6722 193.329 22.9007 192.983 23.1292C192.56 23.4084 192.136 23.6877 191.571 23.5498C190.413 24.0931 189.256 24.0513 188.098 23.5916C185.355 23.4662 182.783 20.8752 182.912 18.5349C182.526 17.9081 182.526 17.3648 182.912 16.7797ZM190.713 15.1917C191.614 15.3171 191.656 15.9857 191.356 16.529C191.056 17.1559 187.198 16.9051 186.812 16.2783C186.812 16.2783 187.113 16.0693 187.284 15.9439C187.292 15.9365 187.299 15.9291 187.307 15.9219L187.321 15.9089C188.203 14.1008 188.895 13.9553 190.713 15.1917Z" fill="#14243C"/>
<path fill-rule="evenodd" clip-rule="evenodd" d="M157.363 12.2246C155.777 12.6843 155.091 13.5619 155.563 15.1499C156.42 15.3171 157.277 15.3171 158.092 15.1081C158.111 15.0994 158.129 15.0907 158.148 15.0823C158.156 15.0788 158.163 15.0753 158.171 15.0719C158.159 15.0839 158.147 15.0959 158.135 15.1081L161.564 15.1081L161.521 15.1499L161.537 15.1708L161.549 15.1857L161.564 15.2055L161.564 15.1499C162.336 15.0663 162.464 15.4842 162.421 16.0693C162.421 16.738 162.078 16.8633 161.521 16.6962L161.521 16.6563C161.507 16.6696 161.493 16.6829 161.478 16.6962C160.369 16.6962 159.218 16.6962 158.109 16.7373L158.093 16.7482L158.082 16.7562C158.071 16.7639 158.06 16.7718 158.049 16.7798C155.434 17.2395 154.577 17.9917 154.577 19.9558C154.577 21.8782 155.82 23.1737 158.049 23.5916C158.649 23.9677 159.206 23.9677 159.806 23.5916C161.092 23.0483 162.25 22.6304 163.75 23.4662C164.736 24.0095 165.636 23.4662 166.065 22.0036C166.537 20.4573 166.665 18.9111 166.322 17.5738C166.198 17.1133 166.149 16.6035 166.1 16.0874C165.98 14.8238 165.855 13.5218 164.608 12.8097C162.378 11.5142 159.892 11.5142 157.363 12.2246ZM161.505 18.5891C161.389 18.6175 161.297 18.6399 161.264 18.6185C159.721 18.1588 158.778 18.7021 158.52 19.7469C158.435 20.2484 159.035 21.126 160.149 21.0424C161.478 20.9588 162.164 20.2066 162.293 19.12C162.388 18.3737 161.843 18.5067 161.505 18.5891Z" fill="#14243C"/>
<path fill-rule="evenodd" clip-rule="evenodd" d="M128 22.1289C128.257 23.3409 128.943 23.5498 129.671 23.508C131.815 23.5916 132.458 22.3379 131.557 20.2902C130.72 18.5636 129.856 16.8535 128.994 15.1453C127.915 13.0083 126.838 10.8741 125.813 8.7142C125.299 7.62765 124.613 6.959 123.456 6.83363C122.084 6.70826 121.269 7.79481 120.841 8.67241C120.178 10.0464 119.532 11.4247 118.887 12.8018C117.532 15.6969 116.179 18.5865 114.668 21.4185C114.497 21.7528 114.539 22.2125 114.925 22.714C115.482 23.3826 116.083 23.5498 116.854 23.508C117.969 23.4662 118.44 22.7976 118.783 21.8364C119.04 21.0424 119.383 20.0812 120.455 20.123C121.195 20.1502 121.935 20.1198 122.672 20.0895C124.198 20.0268 125.711 19.9646 127.185 20.4155C127.442 20.4991 127.871 21.5439 128 22.1289ZM123.702 12.2973L123.499 11.8485C123.382 11.9763 123.246 12.0946 123.115 12.208C122.86 12.4283 122.627 12.6308 122.598 12.8514C122.499 13.3702 122.205 13.8637 121.921 14.3419C121.473 15.0965 121.047 15.8127 121.441 16.529C121.757 17.0892 122.574 16.9923 123.414 16.8927C123.827 16.8437 124.246 16.794 124.613 16.8215C124.677 16.8215 124.752 16.8111 124.827 16.8006C124.902 16.7902 124.977 16.7797 125.042 16.7797C125.685 16.6962 125.599 16.4036 125.385 15.9439C124.81 14.7483 124.269 13.5527 123.702 12.2973Z" fill="#3F8DFD"/>
<path d="M52.7687 17.9081C51.6542 14.8574 52.683 11.9321 55.2978 10.9291L57.9127 10.9291C57.8877 10.8943 57.8627 10.8605 57.8378 10.8277C57.8485 10.8336 57.8592 10.8395 57.8698 10.8455C58.0121 10.8733 58.1732 10.8826 58.3328 10.8918C58.6543 10.9105 58.9697 10.9287 59.113 11.0963C60.399 12.5171 61.3849 11.347 61.8993 10.553C62.628 9.42466 61.7707 8.29631 60.7848 7.83662C59.6274 7.29334 58.2556 6.95902 56.9696 6.87544C52.683 6.58291 50.111 8.29632 48.2677 12.2664C46.0387 17.1559 49.2537 22.7976 54.4405 23.508C55.5979 24.0513 56.7553 24.0095 57.9127 23.5498C58.1267 23.522 58.3503 23.5173 58.5722 23.5127C59.0171 23.5034 59.4557 23.4942 59.7988 23.2991C59.9166 23.2335 60.0365 23.1693 60.1569 23.1049C60.9572 22.6768 61.7783 22.2376 62.1136 21.2931C62.3636 20.5213 61.8035 20.0259 61.3389 19.6149L61.2992 19.5797C60.5398 18.8784 59.557 19.1579 58.6979 19.4021C58.6358 19.4198 58.5735 19.4375 58.5128 19.4544C55.9837 20.2066 53.3688 19.5797 52.7687 17.9081Z" fill="#3F8DFD"/>
</svg>
