<svg width="24" height="24" viewBox="0 0 24 24" fill="none" xmlns="http://www.w3.org/2000/svg">
<circle cx="12" cy="12" r="8.25" fill="#3F97FF" stroke="black" stroke-width="1.5"/>
<path d="M18 10.5L20.5 12.5L19 7.5L18 10.5Z" fill="#FFD33F"/>
<path d="M12.0157 6L15 4L9 4.11509L12.0157 6Z" fill="#FFD33F"/>
<path d="M5.85901 10.467L4.91781 7L3.10906 12.722L5.85901 10.467Z" fill="#FFD33F"/>
<path d="M8.46972 17.0768L4.90874 16.6019L9.48386 20.4854L8.46972 17.0768Z" fill="#FFD33F"/>
<path d="M15.2612 17.0768L18.8222 16.6019L14.2471 20.4854L15.2612 17.0768Z" fill="#FFD33F"/>
<path d="M15.0308 11.0098L12.6508 8.99705C12.2763 8.68034 11.7237 8.68034 11.3492 8.99705L8.96925 11.0098C8.68166 11.253 8.55803 11.6357 8.6499 11.9983L9.31063 14.606C9.42193 15.0452 9.82191 15.3533 10.2808 15.3533H13.7192C14.1781 15.3533 14.5781 15.0452 14.6894 14.606L15.3501 11.9983C15.442 11.6357 15.3183 11.253 15.0308 11.0098Z" fill="#FFD33F"/>
<path d="M8.5 11.4067L6 10.42M6 10.42L5 7.95333M6 10.42L4 11.9M14.5 15.3533L15.5 16.8333M15.5 16.8333L14.5 19.3M15.5 16.8333L18.5 16.34M9.5 15.3533L8 16.8333M8 16.8333L9 19.3M8 16.8333L5.5 16.34M12 8.44667V5.98M12 5.98L14.5 4.5M12 5.98L9.5 4.5M15.5 11.4067L18 10.42M18 10.42L18.5 7.95333M18 10.42L20 12.3933M12.6508 8.99705L15.0308 11.0098C15.3183 11.253 15.442 11.6357 15.3501 11.9983L14.6894 14.606C14.5781 15.0452 14.1781 15.3533 13.7192 15.3533H10.2808C9.82191 15.3533 9.42193 15.0452 9.31063 14.606L8.6499 11.9983C8.55803 11.6357 8.68166 11.253 8.96925 11.0098L11.3492 8.99705C11.7237 8.68034 12.2763 8.68034 12.6508 8.99705Z" stroke="black" stroke-width="1.5" stroke-linecap="round"/>
<circle cx="12" cy="12" r="8.25" stroke="black" stroke-width="1.5"/>
</svg>
