<svg width="24" height="24" viewBox="0 0 24 24" fill="none" xmlns="http://www.w3.org/2000/svg">
<mask id="path-1-outside-1_49_1971" maskUnits="userSpaceOnUse" x="0" y="1" width="24" height="21" fill="black">
<rect fill="white" y="1" width="24" height="21"/>
<path d="M16.5815 3C15.6435 3.01411 14.726 3.26742 13.9215 3.73434C13.1197 4.19977 12.4585 4.86102 12.0043 5.65168C12.0024 5.65504 11.9976 5.65504 11.9957 5.65168C11.5415 4.86102 10.8803 4.19977 10.0785 3.73434C9.27405 3.26742 8.35651 3.01411 7.41852 3C5.92324 3.06285 4.51444 3.69564 3.49991 4.76014C2.48539 5.82464 1.9476 7.2343 2.00403 8.68117C2.00403 12.3453 5.99076 16.3471 9.33441 19.0604C10.081 19.6673 11.0249 20 12 20C12.9751 20 13.919 19.6673 14.6656 19.0604C18.0092 16.3471 21.996 12.3453 21.996 8.68117C22.0524 7.2343 21.5146 5.82464 20.5001 4.76014C19.4856 3.69564 18.0768 3.06285 16.5815 3Z"/>
<path fill-rule="evenodd" clip-rule="evenodd" d="M16 6.75C16 6.33579 16.3358 6 16.75 6C17.9926 6 19 7.00736 19 8.25C19 8.66421 18.6642 9 18.25 9C17.8358 9 17.5 8.66421 17.5 8.25C17.5 7.83579 17.1642 7.5 16.75 7.5C16.3358 7.5 16 7.16421 16 6.75Z"/>
</mask>
<path d="M16.5815 3C15.6435 3.01411 14.726 3.26742 13.9215 3.73434C13.1197 4.19977 12.4585 4.86102 12.0043 5.65168C12.0024 5.65504 11.9976 5.65504 11.9957 5.65168C11.5415 4.86102 10.8803 4.19977 10.0785 3.73434C9.27405 3.26742 8.35651 3.01411 7.41852 3C5.92324 3.06285 4.51444 3.69564 3.49991 4.76014C2.48539 5.82464 1.9476 7.2343 2.00403 8.68117C2.00403 12.3453 5.99076 16.3471 9.33441 19.0604C10.081 19.6673 11.0249 20 12 20C12.9751 20 13.919 19.6673 14.6656 19.0604C18.0092 16.3471 21.996 12.3453 21.996 8.68117C22.0524 7.2343 21.5146 5.82464 20.5001 4.76014C19.4856 3.69564 18.0768 3.06285 16.5815 3Z" fill="white"/>
<path fill-rule="evenodd" clip-rule="evenodd" d="M16 6.75C16 6.33579 16.3358 6 16.75 6C17.9926 6 19 7.00736 19 8.25C19 8.66421 18.6642 9 18.25 9C17.8358 9 17.5 8.66421 17.5 8.25C17.5 7.83579 17.1642 7.5 16.75 7.5C16.3358 7.5 16 7.16421 16 6.75Z" fill="black"/>
<path d="M12.8452 17.8242V17.8274H14.3452V17.8242H12.8452ZM16.5815 3L16.6445 1.50132L16.6017 1.49953L16.5589 1.50017L16.5815 3ZM13.9215 3.73434L13.1685 2.43704L13.9215 3.73434ZM10.0785 3.73434L9.32547 5.03164L10.0785 3.73434ZM7.41852 3L7.44108 1.50017L7.39829 1.49953L7.35553 1.50132L7.41852 3ZM2.00403 8.68117H3.50403V8.65192L3.50289 8.6227L2.00403 8.68117ZM9.33441 19.0604L10.2806 17.8965L10.2796 17.8956L9.33441 19.0604ZM14.6656 19.0604L13.7204 17.8956L13.7194 17.8965L14.6656 19.0604ZM21.996 8.68117L20.4971 8.6227L20.496 8.65192V8.68117H21.996ZM12.0043 5.65168L13.305 6.39881L12.0043 5.65168ZM11.9957 5.65168L10.695 6.39881L11.9957 5.65168ZM16.5589 1.50017C15.3664 1.51811 14.1971 1.84003 13.1685 2.43704L14.6745 5.03164C15.2548 4.69481 15.9205 4.51012 16.6041 4.49983L16.5589 1.50017ZM13.1685 2.43704C12.143 3.03231 11.2912 3.88167 10.7037 4.90456L13.305 6.39881C13.6258 5.84038 14.0964 5.36722 14.6745 5.03164L13.1685 2.43704ZM13.2963 4.90456C12.7088 3.88167 11.857 3.03231 10.8315 2.43704L9.32547 5.03164C9.90363 5.36722 10.3742 5.84038 10.695 6.39881L13.2963 4.90456ZM10.8315 2.43704C9.80294 1.84003 8.63357 1.51811 7.44108 1.50017L7.39595 4.49983C8.07946 4.51012 8.74516 4.69481 9.32547 5.03164L10.8315 2.43704ZM7.35553 1.50132C5.47978 1.58016 3.70188 2.37403 2.41408 3.72527L4.58575 5.79501C5.327 5.01725 6.36669 4.54553 7.48151 4.49868L7.35553 1.50132ZM2.41408 3.72527C1.12463 5.07822 0.432652 6.8804 0.505172 8.73963L3.50289 8.6227C3.46254 7.5882 3.84614 6.57105 4.58575 5.79501L2.41408 3.72527ZM0.504033 8.68117C0.504033 11.023 1.75509 13.2724 3.23658 15.155C4.74822 17.0759 6.67551 18.8345 8.38925 20.2251L10.2796 17.8956C8.64966 16.573 6.91176 14.9741 5.59412 13.2997C4.24633 11.587 3.50403 10.0035 3.50403 8.68117H0.504033ZM8.38821 20.2243C9.4061 21.0518 10.6853 21.5 12 21.5V18.5C11.3644 18.5 10.7558 18.2828 10.2806 17.8965L8.38821 20.2243ZM12 21.5C13.3147 21.5 14.5939 21.0518 15.6118 20.2243L13.7194 17.8965C13.2442 18.2828 12.6356 18.5 12 18.5V21.5ZM15.6108 20.2251C17.3245 18.8345 19.2518 17.0759 20.7634 15.155C22.2449 13.2724 23.496 11.023 23.496 8.68117H20.496C20.496 10.0035 19.7537 11.587 18.4059 13.2997C17.0882 14.9741 15.3503 16.573 13.7204 17.8956L15.6108 20.2251ZM23.4948 8.73963C23.5673 6.88041 22.8754 5.07822 21.5859 3.72527L19.4142 5.79501C20.1539 6.57105 20.5375 7.5882 20.4971 8.6227L23.4948 8.73963ZM21.5859 3.72527C20.2981 2.37403 18.5202 1.58016 16.6445 1.50132L16.5185 4.49868C17.6333 4.54553 18.673 5.01725 19.4142 5.79501L21.5859 3.72527ZM10.7037 4.90456C11.2783 3.90408 12.7217 3.90408 13.2963 4.90456L10.695 6.39881C11.2735 7.406 12.7265 7.406 13.305 6.39881L10.7037 4.90456ZM16.75 4.5C15.5074 4.5 14.5 5.50736 14.5 6.75H17.5C17.5 7.16421 17.1642 7.5 16.75 7.5V4.5ZM20.5 8.25C20.5 6.17893 18.8211 4.5 16.75 4.5V7.5C17.1642 7.5 17.5 7.83579 17.5 8.25H20.5ZM18.25 10.5C19.4926 10.5 20.5 9.49264 20.5 8.25H17.5C17.5 7.83579 17.8358 7.5 18.25 7.5V10.5ZM16 8.25C16 9.49264 17.0074 10.5 18.25 10.5V7.5C18.6642 7.5 19 7.83579 19 8.25H16ZM16.75 9C16.3358 9 16 8.66421 16 8.25H19C19 7.00736 17.9926 6 16.75 6V9ZM14.5 6.75C14.5 7.99264 15.5074 9 16.75 9V6C17.1642 6 17.5 6.33579 17.5 6.75H14.5Z" fill="black" mask="url(#path-1-outside-1_49_1971)"/>
</svg>
