<svg width="24" height="24" viewBox="0 0 24 24" fill="none" xmlns="http://www.w3.org/2000/svg">
<path d="M12.6546 6.02534L12.6547 6.02525C13.0422 5.3507 13.608 4.7835 14.298 4.38299C14.9843 3.98464 15.7681 3.76597 16.5714 3.75028C17.8684 3.81025 19.0841 4.36149 19.9572 5.27757C20.8342 6.19784 21.2949 7.41125 21.2465 8.65193L21.246 8.66654V8.68117C21.246 10.2584 20.3765 12.0084 18.9953 13.7635C17.6291 15.4995 15.8439 17.1384 14.193 18.478L14.1925 18.4784C13.5816 18.975 12.8054 19.25 12 19.25C11.1946 19.25 10.4184 18.975 9.80751 18.4784L9.80699 18.478C8.15612 17.1384 6.37087 15.4995 5.00474 13.7635C3.62352 12.0084 2.75403 10.2584 2.75403 8.68117V8.66654L2.75346 8.65193C2.70507 7.41125 3.16577 6.19784 4.04283 5.27757C4.91591 4.36149 6.13157 3.81025 7.42858 3.75028C8.23187 3.76597 9.01569 3.98464 9.70197 4.38299C10.392 4.7835 10.9578 5.3507 11.3453 6.02525L11.3454 6.02534C11.6356 6.53049 12.3644 6.53049 12.6546 6.02534Z" fill="#3F97FF" stroke="black" stroke-width="1.5"/>
<path d="M18 8.5C18 7.67157 17.3284 7 16.5 7" stroke="black" stroke-width="1.5" stroke-linecap="round"/>
</svg>
