<svg width="24" height="6" viewBox="0 0 24 6" fill="none" xmlns="http://www.w3.org/2000/svg">
<path d="M21.517 5.566C22.8977 5.566 24.017 4.44671 24.017 3.066C24.017 1.68529 22.8977 0.566 21.517 0.566C20.1363 0.566 19.017 1.68529 19.017 3.066C19.017 4.44671 20.1363 5.566 21.517 5.566Z" fill="#97ABC7"/>
<path d="M12 5.5C13.3807 5.5 14.5 4.38071 14.5 3C14.5 1.61929 13.3807 0.5 12 0.5C10.6193 0.5 9.5 1.61929 9.5 3C9.5 4.38071 10.6193 5.5 12 5.5Z" fill="#97ABC7"/>
<path d="M2.5 5.5C3.88071 5.5 5 4.38071 5 3C5 1.61929 3.88071 0.5 2.5 0.5C1.11929 0.5 0 1.61929 0 3C0 4.38071 1.11929 5.5 2.5 5.5Z" fill="#97ABC7"/>
</svg>
