<svg width="16" height="16" viewBox="0 0 16 16" fill="none" xmlns="http://www.w3.org/2000/svg">
<g clip-path="url(#clip0_148_246)">
<path d="M15.514 6.27932C14.48 4.59532 12.128 1.76999 8.00003 1.76999C3.87203 1.76999 1.52003 4.59532 0.486034 6.27932C0.166386 6.79633 -0.00292969 7.39215 -0.00292969 7.99999C-0.00292969 8.60783 0.166386 9.20365 0.486034 9.72066C1.52003 11.4047 3.87203 14.23 8.00003 14.23C12.128 14.23 14.48 11.4047 15.514 9.72066C15.8337 9.20365 16.003 8.60783 16.003 7.99999C16.003 7.39215 15.8337 6.79633 15.514 6.27932ZM14.3774 9.02266C13.4894 10.4667 11.4794 12.8967 8.00003 12.8967C4.5207 12.8967 2.5107 10.4667 1.6227 9.02266C1.43279 8.71535 1.3322 8.36124 1.3322 7.99999C1.3322 7.63874 1.43279 7.28463 1.6227 6.97732C2.5107 5.53332 4.5207 3.10332 8.00003 3.10332C11.4794 3.10332 13.4894 5.53066 14.3774 6.97732C14.5673 7.28463 14.6679 7.63874 14.6679 7.99999C14.6679 8.36124 14.5673 8.71535 14.3774 9.02266Z" fill="#97ABC7"/>
<path d="M8.00008 4.66666C7.34081 4.66666 6.69635 4.86215 6.14818 5.22842C5.60002 5.5947 5.17278 6.11529 4.92048 6.72438C4.66819 7.33347 4.60218 8.00369 4.7308 8.65029C4.85942 9.29689 5.17689 9.89084 5.64306 10.357C6.10924 10.8232 6.70318 11.1407 7.34978 11.2693C7.99639 11.3979 8.66661 11.3319 9.27569 11.0796C9.88478 10.8273 10.4054 10.4001 10.7716 9.85189C11.1379 9.30373 11.3334 8.65926 11.3334 7.99999C11.3324 7.11626 10.9808 6.26903 10.3559 5.64414C9.73104 5.01924 8.88381 4.66772 8.00008 4.66666ZM8.00008 9.99999C7.60452 9.99999 7.21784 9.88269 6.88894 9.66293C6.56004 9.44317 6.3037 9.13081 6.15232 8.76536C6.00095 8.3999 5.96134 7.99777 6.03851 7.60981C6.11568 7.22185 6.30616 6.86548 6.58587 6.58578C6.86557 6.30607 7.22194 6.11559 7.6099 6.03842C7.99786 5.96125 8.4 6.00086 8.76545 6.15223C9.1309 6.30361 9.44326 6.55995 9.66302 6.88885C9.88278 7.21775 10.0001 7.60443 10.0001 7.99999C10.0001 8.53042 9.78937 9.03913 9.4143 9.4142C9.03922 9.78928 8.53052 9.99999 8.00008 9.99999Z" fill="#97ABC7"/>
</g>
<defs>
<clipPath id="clip0_148_246">
<rect width="16" height="16" fill="white"/>
</clipPath>
</defs>
</svg>
